<?xml version="1.0" standalone="no"?>
<!DOCTYPE svg PUBLIC "-//W3C//DTD SVG 20010904//EN"
 "http://www.w3.org/TR/2001/REC-SVG-20010904/DTD/svg10.dtd">
<svg version="1.0" xmlns="http://www.w3.org/2000/svg"
 width="200.000000pt" height="200.000000pt" viewBox="0 0 200.000000 200.000000"
 preserveAspectRatio="xMidYMid meet">
<metadata>
Created by potrace 1.11, written by Peter Selinger 2001-2013
</metadata>
<g transform="translate(0.000000,200.000000) scale(0.100000,-0.100000)"
fill="#000000" stroke="none">
<path d="M1117 1533 c-1 -1 -20 -4 -42 -7 -53 -6 -126 -23 -161 -37 -16 -6
-48 -12 -71 -14 -53 -5 -83 -21 -83 -45 0 -11 -16 -34 -35 -52 -20 -17 -50
-61 -68 -97 -31 -63 -32 -70 -31 -186 1 -66 3 -127 6 -135 2 -8 8 -31 12 -50
4 -19 16 -64 26 -100 11 -36 29 -101 41 -145 33 -117 47 -126 194 -131 l90 -2
1 -34 c8 -188 8 -196 -8 -180 -28 28 -112 2 -142 -43 -24 -37 -23 -92 2 -118
l21 -20 -21 -56 c-11 -31 -25 -62 -31 -68 -7 -10 35 -13 206 -13 l216 0 -10
32 c-19 68 -8 98 35 98 16 0 42 -47 50 -92 7 -38 7 -38 57 -38 l50 0 -7 38
c-4 20 -18 61 -31 91 -20 46 -22 60 -13 86 12 35 6 85 -12 115 -22 34 -83 41
-126 14 -13 -9 -40 -14 -64 -12 -47 3 -45 -1 -53 130 -5 85 -4 88 18 93 145
31 236 61 354 115 l62 29 -5 53 c-14 157 -35 331 -39 338 -2 3 -6 30 -10 60
-8 74 -52 265 -66 292 -7 13 -17 27 -23 33 -16 15 -86 45 -121 51 -29 6 -164
12 -168 7z"/>
</g>
</svg>
